<svg width="45" height="157" viewBox="0 0 45 157" fill="none" xmlns="http://www.w3.org/2000/svg">
<line x1="22.5" y1="99" x2="22.5" y2="119" stroke="#728095"/>
<circle cx="22.5" cy="134.5" r="22" stroke="#728095"/>
<path fill-rule="evenodd" clip-rule="evenodd" d="M21.3658 125.088C18.6661 125.576 16.5481 127.757 16.0848 130.524C16.0058 130.995 16 131.267 16 134.502C16 137.736 16.0058 138.008 16.0848 138.479C16.536 141.174 18.5126 143.276 21.161 143.877C21.7895 144.02 22.8959 144.042 23.5688 143.924C26.3212 143.442 28.4466 141.278 28.9152 138.479C28.9942 138.008 29 137.736 29 134.502C29 131.267 28.9942 130.995 28.9152 130.524C28.4485 127.737 26.3216 125.562 23.5972 125.084C22.9488 124.971 22.0039 124.972 21.3658 125.088ZM23.4369 126.987C24.2983 127.17 25.037 127.565 25.6799 128.188C26.1246 128.618 26.3938 128.995 26.6683 129.571C26.9256 130.111 27.0596 130.576 27.1246 131.155C27.18 131.649 27.18 137.354 27.1246 137.848C27.0395 138.606 26.7612 139.391 26.3537 140.021C26.1446 140.344 25.6518 140.879 25.3356 141.126C23.9496 142.209 22.107 142.416 20.5501 141.664C20.0222 141.409 19.7122 141.195 19.3207 140.815C18.7782 140.289 18.4437 139.783 18.1671 139.068C17.8494 138.248 17.854 138.315 17.854 134.502C17.854 130.688 17.8494 130.755 18.1671 129.935C18.5204 129.022 19.1516 128.208 19.8958 127.704C20.4833 127.307 21.2775 127.004 21.9698 126.915C22.3367 126.868 23.0385 126.902 23.4369 126.987ZM22.151 128.861C21.9538 128.949 21.7718 129.127 21.6671 129.335C21.5897 129.489 21.5839 129.615 21.5839 131.155C21.5839 132.547 21.5946 132.835 21.6514 132.974C21.9593 133.728 23.0407 133.728 23.3486 132.974C23.4054 132.835 23.4161 132.547 23.4161 131.155C23.4161 129.615 23.4103 129.489 23.3329 129.335C23.1032 128.878 22.5831 128.67 22.151 128.861Z" fill="#728095"/>
<path d="M25.072 90.124C25.072 90.404 25.044 90.648 24.988 90.856L24.04 90.76C24.08 90.64 24.1 90.512 24.1 90.376C24.1 89.968 23.892 89.664 23.476 89.464C23.052 89.264 22.324 89.164 21.292 89.164L19.312 89.164L19.312 84.796L25 84.796L25 85.924L20.236 85.924L20.236 88.072L21.592 88.072C22.744 88.072 23.612 88.236 24.196 88.564C24.78 88.884 25.072 89.404 25.072 90.124ZM25 82.3761L19.312 82.3761L19.312 81.2481L23.416 81.2481L23.416 81.2361L19.312 78.3201L19.312 77.0841L25 77.0841L25 78.2121L20.884 78.2121L20.884 78.2361L25 81.1401L25 82.3761ZM25.156 71.9777C25.156 72.8657 24.88 73.5977 24.328 74.1737C23.776 74.7497 23.052 75.0377 22.156 75.0377C21.268 75.0377 20.548 74.7537 19.996 74.1857C19.436 73.6097 19.156 72.8817 19.156 72.0017C19.156 71.5857 19.24 71.1817 19.408 70.7897C19.568 70.3977 19.796 70.0897 20.092 69.8657L20.752 70.6817C20.56 70.8017 20.404 70.9857 20.284 71.2337C20.164 71.4737 20.104 71.7257 20.104 71.9897C20.104 72.5577 20.304 73.0097 20.704 73.3457C21.104 73.6817 21.588 73.8497 22.156 73.8497C22.724 73.8497 23.208 73.6817 23.608 73.3457C24.008 73.0017 24.208 72.5457 24.208 71.9777C24.208 71.3937 24 70.9377 23.584 70.6097L24.268 69.8537C24.86 70.3657 25.156 71.0737 25.156 71.9777ZM25 66.845L20.236 66.845L20.236 68.777L19.312 68.777L19.312 63.785L20.236 63.785L20.236 65.717L25 65.717L25 66.845ZM25.144 60.4484C25.144 60.6884 25.112 60.9244 25.048 61.1564C24.984 61.3884 24.888 61.6084 24.76 61.8164C24.632 62.0244 24.452 62.1924 24.22 62.3204C23.98 62.4484 23.704 62.5124 23.392 62.5124C23.064 62.5124 22.78 62.4364 22.54 62.2844C22.292 62.1244 22.104 61.9244 21.976 61.6844C21.84 61.4444 21.736 61.1404 21.664 60.7724C21.584 60.3964 21.532 60.0444 21.508 59.7164C21.484 59.3804 21.472 58.9924 21.472 58.5524L21.316 58.5524C20.908 58.5524 20.6 58.6804 20.392 58.9364C20.176 59.1844 20.068 59.5244 20.068 59.9564C20.068 60.5964 20.288 61.1364 20.728 61.5764L20.008 62.1764C19.44 61.5844 19.156 60.8084 19.156 59.8484C19.156 59.0644 19.364 58.4724 19.78 58.0724C20.188 57.6724 20.724 57.4724 21.388 57.4724L23.872 57.4724C24.368 57.4724 24.744 57.4444 25 57.3884L25 58.4084C24.728 58.4724 24.456 58.5044 24.184 58.5044L24.184 58.5404C24.824 58.9644 25.144 59.6004 25.144 60.4484ZM24.256 60.1964C24.256 59.6844 24.104 59.2844 23.8 58.9964C23.488 58.7004 23.084 58.5524 22.588 58.5524L22.288 58.5524L22.288 58.8284C22.288 60.5164 22.648 61.3604 23.368 61.3604C23.68 61.3604 23.908 61.2484 24.052 61.0244C24.188 60.8004 24.256 60.5244 24.256 60.1964ZM17.74 51.2805C18.02 51.5925 18.16 52.0045 18.16 52.5165C18.16 53.0285 18.016 53.4445 17.728 53.7645C17.44 54.0765 17.048 54.2645 16.552 54.3285L16.456 53.6685C16.744 53.6205 16.968 53.4925 17.128 53.2845C17.288 53.0765 17.368 52.8205 17.368 52.5165C17.368 52.2125 17.288 51.9565 17.128 51.7485C16.968 51.5405 16.744 51.4125 16.456 51.3645L16.588 50.7045C17.076 50.7685 17.46 50.9605 17.74 51.2805ZM25 55.1085L19.312 55.1085L19.312 53.9805L23.416 53.9805L23.416 53.9685L19.312 51.0525L19.312 49.8165L25 49.8165L25 50.9445L20.884 50.9445L20.884 50.9685L25 53.8725L25 55.1085ZM25 46.198L20.236 46.198L20.236 48.13L19.312 48.13L19.312 43.138L20.236 43.138L20.236 45.07L25 45.07L25 46.198ZM25.156 38.958C25.156 39.83 24.88 40.55 24.328 41.118C23.776 41.678 23.056 41.958 22.168 41.958C21.288 41.958 20.568 41.678 20.008 41.118C19.44 40.558 19.156 39.858 19.156 39.018C19.156 38.178 19.424 37.514 19.96 37.026C20.488 36.53 21.204 36.282 22.108 36.282C22.276 36.282 22.404 36.286 22.492 36.294L22.492 40.806C22.98 40.79 23.392 40.602 23.728 40.242C24.056 39.882 24.22 39.454 24.22 38.958C24.22 38.246 23.932 37.694 23.356 37.302L23.992 36.51C24.768 37.11 25.156 37.926 25.156 38.958ZM21.652 40.806L21.652 37.422C21.18 37.438 20.796 37.582 20.5 37.854C20.196 38.126 20.044 38.514 20.044 39.018C20.044 39.498 20.2 39.906 20.512 40.242C20.824 40.578 21.204 40.766 21.652 40.806ZM25 30.7471L19.312 30.7471L19.312 27.9511C19.312 27.7591 19.328 27.5791 19.36 27.4111C19.384 27.2351 19.432 27.0631 19.504 26.8951C19.568 26.7191 19.656 26.5711 19.768 26.4511C19.872 26.3231 20.012 26.2231 20.188 26.1511C20.364 26.0711 20.564 26.0311 20.788 26.0311C21.084 26.0311 21.344 26.1231 21.568 26.3071C21.784 26.4831 21.924 26.7191 21.988 27.0151L22.012 27.0151C22.06 26.6471 22.208 26.3471 22.456 26.1151C22.696 25.8831 23.012 25.7671 23.404 25.7671C23.9 25.7671 24.292 25.9631 24.58 26.3551C24.86 26.7391 25 27.2551 25 27.9031L25 30.7471ZM24.1 29.6191L24.1 28.0831C24.1 27.3071 23.836 26.9191 23.308 26.9191C22.772 26.9191 22.504 27.2871 22.504 28.0231L22.504 29.6191L24.1 29.6191ZM21.652 29.6191L21.652 28.0471C21.652 27.7911 21.592 27.5751 21.472 27.3991C21.352 27.2231 21.168 27.1351 20.92 27.1351C20.432 27.1351 20.188 27.4791 20.188 28.1671L20.188 29.6191L21.652 29.6191ZM25 23.7163L19.312 23.7163L19.312 22.5883L21.568 22.5883L21.568 19.7683L19.312 19.7683L19.312 18.6403L25 18.6403L25 19.7683L22.492 19.7683L22.492 22.5883L25 22.5883L25 23.7163ZM25 16.2168L19.312 16.2168L19.312 15.0888L23.416 15.0888L23.416 15.0768L19.312 12.1608L19.312 10.9248L25 10.9248L25 12.0528L20.884 12.0528L20.884 12.0768L25 14.9808L25 16.2168ZM25.168 6.75428C25.168 7.83428 24.812 8.65428 24.1 9.21428L23.44 8.44628C23.672 8.29428 23.868 8.07028 24.028 7.77428C24.188 7.47028 24.268 7.15028 24.268 6.81428C24.268 5.97428 23.972 5.55428 23.38 5.55428C22.788 5.55428 22.492 6.05428 22.492 7.05428L22.492 7.47428L21.652 7.47428L21.652 7.06628C21.652 6.17028 21.364 5.72228 20.788 5.72228C20.292 5.72228 20.044 6.10228 20.044 6.86228C20.044 7.13428 20.112 7.39828 20.248 7.65428C20.376 7.91028 20.548 8.11428 20.764 8.26628L20.152 8.98628C19.84 8.77828 19.596 8.47828 19.42 8.08628C19.244 7.68628 19.156 7.24628 19.156 6.76628C19.156 6.11828 19.296 5.59428 19.576 5.19428C19.848 4.78628 20.224 4.58228 20.704 4.58228C21.024 4.58228 21.304 4.69428 21.544 4.91828C21.784 5.13428 21.94 5.41028 22.012 5.74628L22.036 5.74628C22.108 5.34628 22.268 5.02628 22.516 4.78628C22.756 4.53828 23.06 4.41428 23.428 4.41428C23.972 4.41428 24.4 4.63428 24.712 5.07428C25.016 5.51428 25.168 6.07428 25.168 6.75428Z" fill="#728095"/>
</svg>
