<svg width="22.000000" height="22.000000" viewBox="0 0 22 22" fill="none" xmlns="http://www.w3.org/2000/svg" xmlns:xlink="http://www.w3.org/1999/xlink">
	<desc>
			Created with Pixso.
	</desc>
	<path id="free-icon-phone-8500068 1 (Traced)" d="M4.51825 0.0280762C2.48193 0.350342 0.749069 1.86157 0.187729 3.80469C-0.0325317 4.56726 -0.0558777 5.37732 0.101425 6.802C0.803421 13.1595 5.0081 18.5948 10.9996 20.8901C12.6025 21.5042 14.2461 21.854 16.1013 21.9761C17.3592 22.0587 18.104 21.9347 19.0204 21.4896C20.6256 20.7102 21.7384 19.1793 21.9714 17.4302C22.0648 16.7291 21.922 15.7102 21.6539 15.1637C21.4013 14.6487 20.8772 14.1893 20.3502 14.0208C20.0918 13.9381 15.2195 13.1835 14.9444 13.1835C14.4258 13.1835 13.855 13.4376 13.4226 13.8611C13.2753 14.0052 13.1159 14.1794 13.0685 14.2479L12.9822 14.3727L12.4863 14.1239C10.5337 13.1442 9.0238 11.6488 8.05603 9.73608C7.90245 9.4325 7.76372 9.14136 7.74777 9.08899C7.72395 9.01111 7.78088 8.93237 8.06384 8.65198C8.54898 8.17114 8.77226 7.66553 8.7706 7.05115C8.77025 6.92603 8.57411 5.65344 8.33472 4.22314C7.91875 1.73767 7.89244 1.60815 7.74173 1.30286C7.44086 0.692993 6.9167 0.291748 6.1888 0.114014C5.76649 0.0108643 4.90686 -0.0333252 4.51825 0.0280762ZM5.75606 1.1665C6.24561 1.24585 6.57126 1.45007 6.74521 1.7865C6.82884 1.94836 7.63329 6.7251 7.63438 7.06653C7.63556 7.42993 7.47884 7.71021 7.1097 8.00488C6.65646 8.36658 6.54282 8.57471 6.54282 9.04309C6.54282 9.24976 6.57611 9.3783 6.70261 9.65942C7.68156 11.8353 9.41098 13.7063 11.5458 14.8988C12.2496 15.292 12.6883 15.4695 12.9659 15.4735C13.4206 15.48 13.6445 15.3362 14.1333 14.7239C14.3248 14.4839 14.6634 14.3199 14.9674 14.3199C15.2979 14.3199 19.8546 15.0427 20.0562 15.1272C20.287 15.2238 20.5573 15.4805 20.676 15.7159C20.8421 16.045 20.889 16.3542 20.8633 16.9495C20.8349 17.6036 20.7104 18.0742 20.3966 18.7128C20.0474 19.4233 19.4085 20.0426 18.6199 20.4344C17.8964 20.7941 17.3224 20.9017 16.337 20.8625C11.5023 20.6705 6.92059 18.168 4.06493 14.1595C2.50461 11.9694 1.5204 9.39331 1.21205 6.69263C1.13231 5.9939 1.10767 4.92566 1.16371 4.5946C1.44598 2.927 2.7572 1.54016 4.38066 1.19226C4.74449 1.11426 5.36307 1.10266 5.75606 1.1665ZM12.9003 2.07568C12.5794 2.21899 12.5016 2.72949 12.7612 2.98914C12.8576 3.08569 12.9319 3.10278 13.4961 3.15881C13.8413 3.19299 14.281 3.25989 14.4733 3.30737C16.9376 3.91565 18.6942 6.02856 18.8497 8.57166C18.8701 8.90417 18.9002 9.06653 18.9595 9.16418C19.1664 9.50439 19.749 9.48279 19.9107 9.12891C19.9891 8.95728 19.9705 8.28906 19.8712 7.70764C19.6318 6.30725 18.9907 5.08545 17.9499 4.04651C16.951 3.04956 15.8522 2.45276 14.4831 2.16382C14.0387 2.06995 13.0378 2.01428 12.9003 2.07568ZM11.912 5.5564C11.6928 5.67554 11.5944 6.03333 11.7161 6.2688C11.8332 6.49524 11.9338 6.547 12.3411 6.59009C12.9001 6.64941 13.1985 6.73315 13.6617 6.96069C14.6346 7.43872 15.3306 8.4812 15.4008 9.56555C15.4387 10.1505 15.6164 10.3638 16.0368 10.3287C16.2791 10.3085 16.4331 10.1891 16.5075 9.96362C16.6107 9.65063 16.4275 8.64062 16.1607 8.052C15.6943 7.02307 14.7423 6.12769 13.7166 5.75317C13.0376 5.50525 12.1783 5.41162 11.912 5.5564Z" fill-rule="evenodd" fill="#63AFCD"/>
	<defs/>
</svg>
