<svg width="19.000000" height="22.000000" viewBox="0 0 19 22" fill="none" xmlns="http://www.w3.org/2000/svg" xmlns:xlink="http://www.w3.org/1999/xlink">
	<desc>
			Created with Pixso.
	</desc>
	<path id="free-icon-avatar-126486 1 (Traced)" d="M8.68423 0.0408936C7.62451 0.213989 6.8606 0.567139 6.19093 1.1936C5.1123 2.20264 4.67259 3.48584 4.67609 5.6145C4.67941 7.61536 5.12799 9.17371 6.02292 10.2932C6.9158 11.4102 8.40816 11.9786 10.006 11.8104C11.1514 11.6899 11.985 11.2996 12.7164 10.5413C13.4006 9.83203 13.8719 8.86169 14.1172 7.65747C14.3501 6.51465 14.3613 4.75708 14.1427 3.68567C13.7483 1.75317 12.438 0.452148 10.5186 0.0871582C10.028 -0.00610352 9.1132 -0.0291748 8.68423 0.0408936ZM10.5186 1.35242C11.954 1.72791 12.7726 2.73364 12.9909 4.39062C13.0753 5.03052 13.0639 6.43469 12.9698 7.01233C12.8348 7.84058 12.6897 8.31055 12.3914 8.88513C11.7562 10.1083 10.7495 10.6591 9.27383 10.5909C8.34592 10.5481 7.80721 10.3262 7.22113 9.74548C6.47714 9.00818 6.10638 8.05725 5.94928 6.4834C5.88771 5.86658 5.92317 4.66528 6.01869 4.13062C6.30331 2.5376 7.21201 1.56909 8.68423 1.28955C9.13429 1.2041 10.0746 1.23633 10.5186 1.35242ZM6.04022 11.8873C5.95711 11.9308 5.70235 12.0791 5.47415 12.2167C4.71558 12.6742 3.62712 13.1637 2.7041 13.4623C1.65059 13.8032 1.39238 13.9338 0.995331 14.3271C0.296021 15.0198 0.00605774 15.9587 0.00012207 17.5499C-0.00428772 18.7244 0.10791 19.4397 0.338989 19.7101C0.481598 19.8771 1.50549 20.3882 2.37326 20.7257C7.32735 22.6525 13.6369 22.3739 18.172 20.028C18.635 19.7886 18.7672 19.64 18.8535 19.2628C18.9548 18.8201 19.0243 17.7887 18.992 17.2058C18.92 15.9056 18.6693 15.1055 18.1362 14.4745C17.7499 14.0173 17.3302 13.7908 16.2621 13.4624C15.3603 13.1852 14.3827 12.7415 13.4666 12.1936C13.0625 11.9519 12.822 11.835 12.7023 11.8221C12.2386 11.7722 11.8892 12.2653 12.0912 12.6844C12.2878 13.0924 14.3745 14.1653 15.8687 14.6267C16.217 14.7341 16.6046 14.8719 16.73 14.9326C17.1689 15.1451 17.4958 15.6272 17.6471 16.2852C17.705 16.5369 17.72 16.8203 17.7187 17.636C17.7177 18.2036 17.6982 18.7242 17.6753 18.7926C17.6443 18.8856 17.5623 18.9534 17.3517 19.0605C15.6343 19.9344 13.2845 20.5443 10.9771 20.7151C10.1192 20.7786 8.01317 20.7411 7.2648 20.6489C5.18214 20.3925 3.2357 19.8489 1.72536 19.1018L1.33072 18.9067L1.29517 18.7014C1.27559 18.5885 1.26083 18.0703 1.26236 17.5499C1.2655 16.4971 1.31447 16.1689 1.53877 15.6968C1.78479 15.1791 2.11012 14.9249 2.76634 14.7377C3.48669 14.5321 4.27184 14.2202 5.10292 13.8096C6.19496 13.2699 6.7446 12.9248 6.87445 12.6973C7.17007 12.1793 6.57864 11.605 6.04022 11.8873Z" fill-rule="evenodd" fill="#63AFCD"/>
	<defs/>
</svg>
